<svg width="400" height="72" viewBox="0 0 400 72" fill="none" xmlns="http://www.w3.org/2000/svg">
<rect width="194" height="72" rx="4" fill="#F3F5F7"/>
<g style="mix-blend-mode:darken">
<path d="M24.737 25V17.3H27.179C28.708 17.3 29.709 18.092 29.709 19.335C29.709 20.039 29.346 20.688 28.785 20.996C29.511 21.304 29.962 21.953 29.962 22.745C29.962 24.241 28.741 25 27.322 25H24.737ZM26.288 20.413H27.168C27.707 20.413 28.125 20.05 28.125 19.511C28.125 18.983 27.729 18.642 27.146 18.642H26.288V20.413ZM26.288 23.669H27.234C27.861 23.669 28.356 23.284 28.356 22.657C28.356 22.019 27.861 21.667 27.234 21.667H26.288V23.669ZM31.4719 25V17.3H35.4319V18.697H33.0229V20.413H35.0909V21.788H33.0229V23.614H35.5309V25H31.4719ZM37.2078 25V17.3H41.1458V18.697H38.7588V20.512H40.8488V21.898H38.7588V25H37.2078ZM46.197 25.143C43.832 25.143 42.193 23.416 42.193 21.15C42.193 18.906 43.832 17.157 46.197 17.157C48.562 17.157 50.201 18.906 50.201 21.15C50.201 23.416 48.562 25.143 46.197 25.143ZM46.197 18.609C44.811 18.609 43.81 19.698 43.81 21.15C43.81 22.624 44.811 23.691 46.197 23.691C47.583 23.691 48.584 22.624 48.584 21.15C48.584 19.698 47.583 18.609 46.197 18.609ZM51.7089 25V17.3H54.0299C55.7129 17.3 56.6369 18.323 56.6369 19.588C56.6369 20.523 56.1749 21.238 55.4709 21.623L57.2969 25H55.5809L54.0849 21.986H53.2599V25H51.7089ZM53.2599 20.677H53.9859C54.5469 20.677 55.0419 20.325 55.0419 19.643C55.0419 19.027 54.6129 18.642 53.9089 18.642H53.2599V20.677ZM58.5835 25V17.3H62.5435V18.697H60.1345V20.413H62.2025V21.788H60.1345V23.614H62.6425V25H58.5835Z" fill="#91A5B6"/>
</g>
<rect x="24" y="41" width="3" height="15" rx="1.5" fill="#FFA500"/>
<rect x="28.9316" y="41" width="3" height="15" rx="1.5" fill="#FFA500"/>
<rect x="33.8613" y="41" width="3" height="15" rx="1.5" fill="#FFA500"/>
<rect x="38.793" y="41" width="3" height="15" rx="1.5" fill="#FFA500"/>
<rect x="43.7246" y="41" width="3" height="15" rx="1.5" fill="#FFA500"/>
<rect x="48.6543" y="41" width="3" height="15" rx="1.5" fill="#FFA500"/>
<rect x="53.5859" y="41" width="3" height="15" rx="1.5" fill="#FFA500"/>
<rect x="58.5176" y="41" width="3" height="15" rx="1.5" fill="#E0E6EB"/>
<rect x="63.4492" y="41" width="3" height="15" rx="1.5" fill="#E0E6EB"/>
<rect x="68.3789" y="41" width="3" height="15" rx="1.5" fill="#E0E6EB"/>
<rect x="73.3105" y="41" width="3" height="15" rx="1.5" fill="#E0E6EB"/>
<rect x="78.2422" y="41" width="3" height="15" rx="1.5" fill="#E0E6EB"/>
<rect x="83.1719" y="41" width="3" height="15" rx="1.5" fill="#E0E6EB"/>
<rect x="88.1035" y="41" width="3" height="15" rx="1.5" fill="#E0E6EB"/>
<rect x="93.0352" y="41" width="3" height="15" rx="1.5" fill="#E0E6EB"/>
<rect x="97.9648" y="41" width="3" height="15" rx="1.5" fill="#E0E6EB"/>
<rect x="102.896" y="41" width="3" height="15" rx="1.5" fill="#E0E6EB"/>
<rect x="107.828" y="41" width="3" height="15" rx="1.5" fill="#E0E6EB"/>
<rect x="112.758" y="41" width="3" height="15" rx="1.5" fill="#E0E6EB"/>
<rect x="117.689" y="41" width="3" height="15" rx="1.5" fill="#E0E6EB"/>
<rect x="122.621" y="41" width="3" height="15" rx="1.5" fill="#E0E6EB"/>
<rect x="127.551" y="41" width="3" height="15" rx="1.5" fill="#E0E6EB"/>
<rect x="132.482" y="41" width="3" height="15" rx="1.5" fill="#E0E6EB"/>
<rect x="137.414" y="41" width="3" height="15" rx="1.5" fill="#E0E6EB"/>
<rect x="142.346" y="41" width="3" height="15" rx="1.5" fill="#E0E6EB"/>
<rect x="147.275" y="41" width="3" height="15" rx="1.5" fill="#E0E6EB"/>
<rect x="152.207" y="41" width="3" height="15" rx="1.5" fill="#E0E6EB"/>
<rect x="157.139" y="41" width="3" height="15" rx="1.5" fill="#E0E6EB"/>
<rect x="162.068" y="41" width="3" height="15" rx="1.5" fill="#E0E6EB"/>
<rect x="167" y="41" width="3" height="15" rx="1.5" fill="#E0E6EB"/>
<rect x="206" width="194" height="72" rx="4" fill="#F3F5F7"/>
<g style="mix-blend-mode:darken">
<path d="M234.939 23.02H232.321L231.65 25H230.088L232.816 17.3H234.444L237.172 25H235.61L234.939 23.02ZM234.532 21.733L233.63 18.961L232.739 21.733H234.532ZM238.439 25V17.3H242.377V18.697H239.99V20.512H242.08V21.898H239.99V25H238.439ZM245.344 25V18.697H243.54V17.3H248.688V18.697H246.895V25H245.344ZM250.104 25V17.3H254.064V18.697H251.655V20.413H253.723V21.788H251.655V23.614H254.163V25H250.104ZM255.84 25V17.3H258.161C259.844 17.3 260.768 18.323 260.768 19.588C260.768 20.523 260.306 21.238 259.602 21.623L261.428 25H259.712L258.216 21.986H257.391V25H255.84ZM257.391 20.677H258.117C258.678 20.677 259.173 20.325 259.173 19.643C259.173 19.027 258.744 18.642 258.04 18.642H257.391V20.677Z" fill="#91A5B6"/>
</g>
<rect x="230" y="41" width="3" height="15" rx="1.5" fill="#1CB96E"/>
<rect x="234.932" y="41" width="3" height="15" rx="1.5" fill="#1CB96E"/>
<rect x="239.861" y="41" width="3" height="15" rx="1.5" fill="#1CB96E"/>
<rect x="244.793" y="41" width="3" height="15" rx="1.5" fill="#1CB96E"/>
<rect x="249.725" y="41" width="3" height="15" rx="1.5" fill="#1CB96E"/>
<rect x="254.654" y="41" width="3" height="15" rx="1.5" fill="#1CB96E"/>
<rect x="259.586" y="41" width="3" height="15" rx="1.5" fill="#1CB96E"/>
<rect x="264.518" y="41" width="3" height="15" rx="1.5" fill="#1CB96E"/>
<rect x="269.449" y="41" width="3" height="15" rx="1.5" fill="#1CB96E"/>
<rect x="274.379" y="41" width="3" height="15" rx="1.5" fill="#1CB96E"/>
<rect x="279.311" y="41" width="3" height="15" rx="1.5" fill="#1CB96E"/>
<rect x="284.242" y="41" width="3" height="15" rx="1.5" fill="#1CB96E"/>
<rect x="289.172" y="41" width="3" height="15" rx="1.5" fill="#1CB96E"/>
<rect x="294.104" y="41" width="3" height="15" rx="1.5" fill="#1CB96E"/>
<rect x="299.035" y="41" width="3" height="15" rx="1.5" fill="#1CB96E"/>
<rect x="303.965" y="41" width="3" height="15" rx="1.5" fill="#1CB96E"/>
<rect x="308.896" y="41" width="3" height="15" rx="1.5" fill="#1CB96E"/>
<rect x="313.828" y="41" width="3" height="15" rx="1.5" fill="#1CB96E"/>
<rect x="318.758" y="41" width="3" height="15" rx="1.5" fill="#1CB96E"/>
<rect x="323.689" y="41" width="3" height="15" rx="1.5" fill="#1CB96E"/>
<rect x="328.621" y="41" width="3" height="15" rx="1.5" fill="#1CB96E"/>
<rect x="333.551" y="41" width="3" height="15" rx="1.5" fill="#1CB96E"/>
<rect x="338.482" y="41" width="3" height="15" rx="1.5" fill="#1CB96E"/>
<rect x="343.414" y="41" width="3" height="15" rx="1.5" fill="#1CB96E"/>
<rect x="348.346" y="41" width="3" height="15" rx="1.5" fill="#1CB96E"/>
<rect x="353.275" y="41" width="3" height="15" rx="1.5" fill="#1CB96E"/>
<rect x="358.207" y="41" width="3" height="15" rx="1.5" fill="#1CB96E"/>
<rect x="363.139" y="41" width="3" height="15" rx="1.5" fill="#1CB96E"/>
<rect x="368.068" y="41" width="3" height="15" rx="1.5" fill="#E0E6EB"/>
<rect x="373" y="41" width="3" height="15" rx="1.5" fill="#E0E6EB"/>
</svg>
